<svg xmlns="http://www.w3.org/2000/svg" xmlns:xlink="http://www.w3.org/1999/xlink" id="Ebene_1" width="84.183" height="87.757" x="0" y="0" enable-background="new 0 0 84.183 87.757" version="1.1" viewBox="0 0 84.183 87.757" xml:space="preserve"><rect width="83.859" height="87.394" x="0" y=".363" opacity="0"/><g><defs><rect id="SVGID_1_" width="83.859" height="87.394" x=".324"/></defs><clipPath id="SVGID_2_"><use overflow="visible" xlink:href="#SVGID_1_"/></clipPath><g clip-path="url(#SVGID_2_)" opacity=".15"><g><defs><rect id="SVGID_3_" width="84" height="87" x="0" y=".757"/></defs><clipPath id="SVGID_4_"><use overflow="visible" xlink:href="#SVGID_3_"/></clipPath><g clip-path="url(#SVGID_4_)"><defs><rect id="SVGID_5_" width="84" height="87" x="0" y=".757"/></defs><clipPath id="SVGID_6_"><use overflow="visible" xlink:href="#SVGID_5_"/></clipPath><g clip-path="url(#SVGID_6_)"><defs><rect id="SVGID_7_" width="84" height="87" x="0" y=".757"/></defs><clipPath id="SVGID_8_"><use overflow="visible" xlink:href="#SVGID_7_"/></clipPath><path fill="#00A0D9" fill-rule="evenodd" d="M34.28,87.757 c0,0,4.6-10.366,0.588-18.02c-4.014-7.652-30.076-5.109-34.109-24.168C-3.274,26.51,8.812,9.673,35.967,2.479 c27.153-7.193,43.893,9.563,47.207,24.079C86.491,41.077,81.639,65.747,34.28,87.757" clip-path="url(#SVGID_8_)" clip-rule="evenodd"/></g></g></g></g></g><path fill="#0098B3" d="M54.086,31.054c0.014,0.203,0.014,0.407,0.014,0.61c0,6.196-4.715,13.335-13.335,13.335	c-2.656,0-5.123-0.769-7.198-2.104c0.377,0.043,0.74,0.058,1.132,0.058c2.191,0,4.208-0.74,5.819-2.002	c-2.061-0.044-3.788-1.394-4.382-3.251c0.29,0.044,0.58,0.072,0.885,0.072c0.421,0,0.842-0.058,1.233-0.159	c-2.147-0.436-3.758-2.322-3.758-4.601c0-0.014,0-0.043,0-0.058c0.624,0.349,1.35,0.566,2.119,0.595	c-1.262-0.842-2.089-2.278-2.089-3.903c0-0.87,0.232-1.669,0.638-2.365c2.308,2.844,5.775,4.701,9.665,4.904	c-0.073-0.348-0.117-0.711-0.117-1.073c0-2.583,2.09-4.688,4.688-4.688c1.35,0,2.568,0.566,3.425,1.48	c1.06-0.203,2.075-0.595,2.975-1.132c-0.349,1.088-1.088,2.003-2.061,2.583c0.943-0.102,1.857-0.363,2.699-0.726	C55.798,29.56,55,30.387,54.086,31.054z"/></svg>